<?xml version="1.0" standalone="no"?>
<!DOCTYPE svg PUBLIC "-//W3C//DTD SVG 20010904//EN"
 "http://www.w3.org/TR/2001/REC-SVG-20010904/DTD/svg10.dtd">
<svg version="1.0" xmlns="http://www.w3.org/2000/svg"
 width="260.000000pt" height="260.000000pt" viewBox="0 0 260.000000 260.000000"
 preserveAspectRatio="xMidYMid meet">
<metadata>
Created by potrace 1.14, written by Peter Selinger 2001-2017
</metadata>
<g transform="translate(0.000000,260.000000) scale(0.100000,-0.100000)"
fill="#000000" stroke="none">
<path d="M0 1300 l0 -1300 1300 0 1300 0 0 1300 0 1300 -1300 0 -1300 0 0
-1300z m1304 551 c69 -30 113 -66 145 -116 l27 -43 49 49 c57 58 160 112 242
130 65 13 227 7 283 -12 92 -29 167 -111 200 -215 31 -101 40 -248 40 -637 l0
-357 -187 2 -188 3 -5 400 c-5 395 -5 401 -29 448 -28 57 -52 75 -114 83 -95
13 -174 -31 -214 -121 -16 -36 -18 -80 -21 -427 l-3 -388 -189 0 -189 0 -3
403 c-3 399 -3 402 -27 450 -29 61 -56 78 -128 84 -103 8 -172 -45 -209 -161
-14 -42 -18 -115 -21 -413 l-5 -363 -184 0 -184 0 0 600 0 600 165 0 164 0 16
-52 c8 -28 15 -57 15 -64 0 -28 19 -21 71 27 54 50 132 94 192 110 18 4 79 7
137 5 82 -2 116 -7 154 -25z"/>
</g>
</svg>
